<svg width="14" height="12" viewBox="0 0 14 12" fill="none" xmlns="http://www.w3.org/2000/svg">
<path d="M4.8 7.8C4.68133 7.8 4.56533 7.83519 4.46666 7.90112C4.36799 7.96705 4.29108 8.06075 4.24567 8.17039C4.20026 8.28003 4.18838 8.40067 4.21153 8.51706C4.23468 8.63344 4.29182 8.74035 4.37574 8.82426C4.45965 8.90818 4.56656 8.96532 4.68295 8.98847C4.79933 9.01162 4.91997 8.99974 5.02961 8.95433C5.13925 8.90892 5.23295 8.83201 5.29888 8.73334C5.36481 8.63467 5.4 8.51867 5.4 8.4C5.4 8.24087 5.33679 8.08826 5.22426 7.97574C5.11174 7.86321 4.95913 7.8 4.8 7.8ZM0.6 7.2C0.44087 7.2 0.288258 7.26321 0.175736 7.37574C0.0632141 7.48826 0 7.64087 0 7.8V9C0 9.15913 0.0632141 9.31174 0.175736 9.42426C0.288258 9.53679 0.44087 9.6 0.6 9.6C0.75913 9.6 0.911742 9.53679 1.02426 9.42426C1.13679 9.31174 1.2 9.15913 1.2 9V7.8C1.2 7.64087 1.13679 7.48826 1.02426 7.37574C0.911742 7.26321 0.75913 7.2 0.6 7.2ZM12.6 7.2C12.4409 7.2 12.2883 7.26321 12.1757 7.37574C12.0632 7.48826 12 7.64087 12 7.8V9C12 9.15913 12.0632 9.31174 12.1757 9.42426C12.2883 9.53679 12.4409 9.6 12.6 9.6C12.7591 9.6 12.9117 9.53679 13.0243 9.42426C13.1368 9.31174 13.2 9.15913 13.2 9V7.8C13.2 7.64087 13.1368 7.48826 13.0243 7.37574C12.9117 7.26321 12.7591 7.2 12.6 7.2ZM9.6 3H7.2V2.232C7.38136 2.12729 7.53217 1.97695 7.63743 1.7959C7.74269 1.61486 7.79874 1.40942 7.8 1.2C7.8 0.88174 7.67357 0.576515 7.44853 0.351472C7.22348 0.126428 6.91826 0 6.6 0C6.28174 0 5.97652 0.126428 5.75147 0.351472C5.52643 0.576515 5.4 0.88174 5.4 1.2C5.40126 1.40942 5.45731 1.61486 5.56257 1.7959C5.66783 1.97695 5.81863 2.12729 6 2.232V3H3.6C3.12261 3 2.66477 3.18964 2.32721 3.52721C1.98964 3.86477 1.8 4.32261 1.8 4.8V10.2C1.8 10.6774 1.98964 11.1352 2.32721 11.4728C2.66477 11.8104 3.12261 12 3.6 12H9.6C10.0774 12 10.5352 11.8104 10.8728 11.4728C11.2104 11.1352 11.4 10.6774 11.4 10.2V4.8C11.4 4.32261 11.2104 3.86477 10.8728 3.52721C10.5352 3.18964 10.0774 3 9.6 3ZM7.632 4.2L7.332 5.4H5.868L5.568 4.2H7.632ZM10.2 10.2C10.2 10.3591 10.1368 10.5117 10.0243 10.6243C9.91174 10.7368 9.75913 10.8 9.6 10.8H3.6C3.44087 10.8 3.28826 10.7368 3.17574 10.6243C3.06321 10.5117 3 10.3591 3 10.2V4.8C3 4.64087 3.06321 4.48826 3.17574 4.37574C3.28826 4.26321 3.44087 4.2 3.6 4.2H4.332L4.8 6.144C4.83285 6.27713 4.91031 6.39498 5.01948 6.47795C5.12864 6.56092 5.26294 6.60399 5.4 6.6H7.8C7.93706 6.60399 8.07135 6.56092 8.18052 6.47795C8.28969 6.39498 8.36715 6.27713 8.4 6.144L8.868 4.2H9.6C9.75913 4.2 9.91174 4.26321 10.0243 4.37574C10.1368 4.48826 10.2 4.64087 10.2 4.8V10.2ZM8.4 7.8C8.28133 7.8 8.16533 7.83519 8.06666 7.90112C7.96799 7.96705 7.89108 8.06075 7.84567 8.17039C7.80026 8.28003 7.78838 8.40067 7.81153 8.51706C7.83468 8.63344 7.89182 8.74035 7.97574 8.82426C8.05965 8.90818 8.16656 8.96532 8.28295 8.98847C8.39933 9.01162 8.51997 8.99974 8.62961 8.95433C8.73925 8.90892 8.83295 8.83201 8.89888 8.73334C8.96481 8.63467 9 8.51867 9 8.4C9 8.24087 8.93679 8.08826 8.82426 7.97574C8.71174 7.86321 8.55913 7.8 8.4 7.8Z" fill="white"/>
</svg>
