<svg width="12" height="12" viewBox="0 0 12 12" fill="none" xmlns="http://www.w3.org/2000/svg">
<path d="M1.30435 9.13043C1.23516 9.13043 1.16881 9.10295 1.11989 9.05403C1.07096 9.00511 1.04348 8.93875 1.04348 8.86957V8.34783C1.04348 8.27864 1.07096 8.21229 1.11989 8.16336C1.16881 8.11444 1.23516 8.08696 1.30435 8.08696C1.37353 8.08696 1.43989 8.11444 1.48881 8.16336C1.53773 8.21229 1.56522 8.27864 1.56522 8.34783V8.86957C1.56522 8.93875 1.53773 9.00511 1.48881 9.05403C1.43989 9.10295 1.37353 9.13043 1.30435 9.13043ZM2.6087 12H1.56522C1.27748 12 1.04348 11.766 1.04348 11.4783V9.65217H3.13043V11.4783C3.13043 11.766 2.89643 12 2.6087 12ZM1.56522 10.1739V11.4783H2.6087V10.1739H1.56522Z" fill="#EAF4F4"/>
<path d="M2.6087 10.1739H1.36697C1.2861 10.1739 1.20731 10.1549 1.1327 10.1173L0.28827 9.69809C0.201215 9.65476 0.128055 9.58789 0.0770994 9.50507C0.026144 9.42225 -0.000564007 9.3268 9.03101e-06 9.22957V8.63739C9.03101e-06 8.24191 0.280183 7.89809 0.651922 7.8373C0.783213 7.81536 0.917924 7.82703 1.04349 7.87122V7.56522C1.04349 7.35261 1.13114 7.1473 1.28427 7.00278C1.4091 6.87994 1.57244 6.80384 1.74679 6.7873C1.77523 6.78261 1.79844 6.78261 1.81044 6.78261H2.34784C2.55549 6.78261 2.7501 6.8627 2.89514 7.00774C3.04279 7.1473 3.13044 7.35261 3.13044 7.56522V9.65217C3.13044 9.93991 2.89644 10.1739 2.6087 10.1739ZM0.7834 8.34835C0.768009 8.34835 0.752618 8.34965 0.736966 8.35226C0.615922 8.37209 0.521748 8.49704 0.521748 8.63739V9.22957L1.36566 9.65061L2.6087 9.65217V7.56522C2.60911 7.53096 2.60243 7.49699 2.5891 7.46544C2.57577 7.43388 2.55607 7.40542 2.53123 7.38183C2.50755 7.3571 2.47907 7.33747 2.44753 7.32414C2.416 7.31082 2.38207 7.30408 2.34784 7.30435L1.8034 7.30617C1.76945 7.30844 1.73632 7.31768 1.7061 7.3333C1.68465 7.3451 1.6649 7.35976 1.6474 7.37687C1.59262 7.42904 1.56523 7.49426 1.56523 7.56522V8.6087H1.04349C1.04335 8.53973 1.01591 8.47363 0.967173 8.42485C0.918435 8.37606 0.852361 8.34855 0.7834 8.34835Z" fill="#EAF4F4"/>
<path d="M7.03046 4.41663L6.78263 4.25489L6.51915 4.08533V4.08272L5.74176 3.57924C5.49915 3.42272 5.19393 3.41228 4.94872 3.54794L1.82611 5.21489L1.78176 5.23837L1.88872 5.70794L1.89915 5.75228C1.96176 5.74446 2.02437 5.73924 2.08698 5.73924C2.65306 5.73924 3.13046 6.03663 3.13046 6.39141C3.13046 6.61055 2.92959 6.82968 2.61915 6.94707L2.22785 7.09576L2.53046 7.38272C2.58002 7.42968 2.60872 7.49489 2.60872 7.56533V8.40533L2.73654 8.48098C2.82263 8.53315 2.91915 8.58272 3.0235 8.62707C3.38872 8.78881 3.77219 8.86968 4.16872 8.86968C4.23393 8.86968 4.29915 8.86707 4.36698 8.86446C4.70089 8.84098 5.02437 8.76011 5.32437 8.62185C6.36785 8.14707 7.0435 7.08272 7.0435 5.90881V4.42446L7.03046 4.41663ZM6.52176 5.90881C6.52176 6.87924 5.96872 7.75837 5.10785 8.14707C4.86524 8.25924 4.60176 8.32446 4.33046 8.34272C3.95518 8.36936 3.57908 8.30399 3.2348 8.15228C3.20089 8.13663 3.16437 8.11837 3.13046 8.10272V7.56533C3.13046 7.47402 3.1148 7.38272 3.0835 7.29924C3.44089 7.08011 3.65219 6.75141 3.65219 6.39141C3.65219 5.90881 3.28176 5.50185 2.73915 5.32185L5.19654 4.00707C5.27741 3.96272 5.37915 3.96533 5.45741 4.01489L6.52176 4.70881V5.90881Z" fill="#EAF4F4"/>
<path d="M2.64522 7.49583L2.526 7.37661C2.50265 7.35326 2.47485 7.33483 2.44424 7.32241C2.41363 7.31 2.38085 7.30386 2.34783 7.30435L1.80339 7.30618C1.76944 7.30844 1.73632 7.31768 1.70609 7.33331C1.68464 7.3451 1.66489 7.35976 1.64739 7.37687L1.52817 7.49583L1.37087 7.43609C0.847304 7.23783 0.521739 6.83739 0.521739 6.39131C0.521739 6.00652 0.769304 5.64783 1.18383 5.43209C1.2823 5.3779 1.38674 5.33535 1.49504 5.30531C1.59678 5.27087 1.71157 5.24635 1.83391 5.23435L1.83861 5.23383C1.92093 5.22276 2.0039 5.21727 2.08696 5.21739C2.96452 5.21739 3.65217 5.73313 3.65217 6.39131C3.65217 6.83739 3.32661 7.23783 2.80278 7.43635L2.64522 7.49583ZM1.86261 5.75478C1.80261 5.76183 1.72461 5.77852 1.64765 5.80383C1.57177 5.82474 1.49858 5.85442 1.42957 5.89226C1.18591 6.01905 1.04348 6.20478 1.04348 6.39131C1.04348 6.58018 1.19087 6.76748 1.42852 6.89139C1.43557 6.88696 1.44287 6.88305 1.45017 6.87887C1.53809 6.82931 1.64035 6.79748 1.74652 6.78731C1.77522 6.78261 1.79843 6.78261 1.81043 6.78261H2.34783C2.49052 6.78261 2.62722 6.82044 2.74565 6.89139C2.9833 6.76722 3.13043 6.58018 3.13043 6.39131C3.13043 6.03783 2.65252 5.73913 2.08696 5.73913C2.02383 5.73913 1.9607 5.74331 1.89965 5.75218L1.86261 5.75478Z" fill="#EAF4F4"/>
<path d="M6.78261 2.97675C6.58957 2.54892 6.28696 2.17327 5.89565 1.8811C5.68435 1.72197 5.45478 1.59414 5.21478 1.50284C4.56261 1.24197 3.79826 1.23936 3.13565 1.50023C2.04 1.92545 1.30435 3.00023 1.30435 4.17414V5.73936H1.82609L1.8887 5.70805L5.19652 4.00719C5.27739 3.96284 5.37913 3.96545 5.45739 4.01501L6.52174 4.70892L6.78261 4.8811L6.9 4.95675L6.95217 4.99066L6.95739 4.95675L7.01217 4.58892C7.02 4.53153 7.02783 4.47414 7.03043 4.41675C7.04087 4.33588 7.04348 4.25501 7.04348 4.17414C7.04348 3.75414 6.95478 3.34458 6.78261 2.97675ZM5.74174 3.57936C5.49913 3.42284 5.19391 3.4124 4.9487 3.54806L1.82609 5.21762V4.17414C1.82609 3.21414 2.4287 2.33501 3.32609 1.98545C3.87235 1.77267 4.47874 1.7736 5.02435 1.98806C5.22261 2.06371 5.41043 2.16806 5.58261 2.29849C6.15652 2.72892 6.49565 3.37327 6.51913 4.08284V4.08545L5.74174 3.57936Z" fill="#EAF4F4"/>
<path d="M5.24977 2.07939L5.02098 1.9873C4.49011 1.77417 3.86533 1.77313 3.32481 1.98522L3.10124 2.07313L2.99533 1.85739C2.91138 1.68519 2.86835 1.49592 2.86959 1.30435C2.86959 0.58513 3.45472 0 4.17394 0C4.89316 0 5.47829 0.58513 5.47829 1.30435C5.47783 1.49511 5.43553 1.68345 5.35437 1.85609L5.24977 2.07939ZM4.17394 1.30435C4.44029 1.30435 4.69985 1.34035 4.94872 1.41183C4.9639 1.3011 4.95522 1.1884 4.92326 1.0813C4.8913 0.9742 4.8368 0.875176 4.76342 0.790874C4.69004 0.706571 4.59947 0.638941 4.4978 0.592522C4.39613 0.546103 4.28571 0.521968 4.17394 0.521739C4.06221 0.521877 3.9518 0.545906 3.85011 0.592214C3.74843 0.638523 3.65783 0.706039 3.58438 0.790236C3.51093 0.874433 3.45633 0.973362 3.42425 1.08039C3.39217 1.18742 3.38335 1.30007 3.39837 1.41078C3.65077 1.33981 3.91175 1.304 4.17394 1.30435ZM7.56524 12C7.49606 12 7.4297 11.9725 7.38078 11.9236C7.33186 11.8747 7.30437 11.8083 7.30437 11.7391V10.4348C7.30437 10.0033 6.95324 9.65217 6.52177 9.65217H5.47829C5.19055 9.65217 4.95655 9.41817 4.95655 9.13043V8.38435C4.95655 8.31516 4.98403 8.24881 5.03295 8.19988C5.08188 8.15096 5.14823 8.12348 5.21742 8.12348C5.2866 8.12348 5.35296 8.15096 5.40188 8.19988C5.4508 8.24881 5.47829 8.31516 5.47829 8.38435V9.13043H6.52177C7.24098 9.13043 7.82611 9.71557 7.82611 10.4348V11.7391C7.82611 11.8083 7.79863 11.8747 7.74971 11.9236C7.70078 11.9725 7.63443 12 7.56524 12ZM9.6522 3.91304C9.07672 3.91304 8.60872 3.44504 8.60872 2.86957C8.60872 2.29409 9.07672 1.82609 9.6522 1.82609C10.2277 1.82609 10.6957 2.29409 10.6957 2.86957C10.6957 3.44504 10.2277 3.91304 9.6522 3.91304ZM9.6522 2.34783C9.36446 2.34783 9.13046 2.58183 9.13046 2.86957C9.13046 3.1573 9.36446 3.3913 9.6522 3.3913C9.93994 3.3913 10.1739 3.1573 10.1739 2.86957C10.1739 2.58183 9.93994 2.34783 9.6522 2.34783ZM7.82611 3.13043H7.56524C7.49606 3.13043 7.4297 3.10295 7.38078 3.05403C7.33186 3.00511 7.30437 2.93875 7.30437 2.86957C7.30437 2.80038 7.33186 2.73403 7.38078 2.6851C7.4297 2.63618 7.49606 2.6087 7.56524 2.6087H7.82611C7.8953 2.6087 7.96165 2.63618 8.01058 2.6851C8.0595 2.73403 8.08698 2.80038 8.08698 2.86957C8.08698 2.93875 8.0595 3.00511 8.01058 3.05403C7.96165 3.10295 7.8953 3.13043 7.82611 3.13043ZM11.7392 3.13043H11.4783C11.4091 3.13043 11.3427 3.10295 11.2938 3.05403C11.2449 3.00511 11.2174 2.93875 11.2174 2.86957C11.2174 2.80038 11.2449 2.73403 11.2938 2.6851C11.3427 2.63618 11.4091 2.6087 11.4783 2.6087H11.7392C11.8083 2.6087 11.8747 2.63618 11.9236 2.6851C11.9725 2.73403 12 2.80038 12 2.86957C12 2.93875 11.9725 3.00511 11.9236 3.05403C11.8747 3.10295 11.8083 3.13043 11.7392 3.13043ZM8.3609 1.83913C8.32663 1.83917 8.2927 1.83243 8.26105 1.81931C8.2294 1.8062 8.20065 1.78696 8.17646 1.7627L7.99203 1.57826C7.96781 1.55404 7.94859 1.52529 7.93549 1.49364C7.92238 1.462 7.91563 1.42808 7.91563 1.39383C7.91563 1.35957 7.92238 1.32566 7.93549 1.29401C7.94859 1.26237 7.96781 1.23361 7.99203 1.20939C8.01625 1.18517 8.045 1.16596 8.07665 1.15285C8.10829 1.13974 8.14221 1.133 8.17646 1.133C8.21071 1.133 8.24463 1.13974 8.27628 1.15285C8.30792 1.16596 8.33668 1.18517 8.3609 1.20939L8.54533 1.39383C8.58193 1.43026 8.60688 1.47675 8.61701 1.52739C8.62715 1.57802 8.62201 1.63053 8.60225 1.67825C8.58248 1.72596 8.54899 1.76672 8.50602 1.79537C8.46305 1.82401 8.41254 1.83924 8.3609 1.83913ZM11.1279 4.60617C11.0937 4.60621 11.0597 4.59948 11.0281 4.58636C10.9964 4.57324 10.9677 4.554 10.9435 4.52974L10.7591 4.3453C10.7348 4.32108 10.7156 4.29233 10.7025 4.26069C10.6894 4.22904 10.6827 4.19512 10.6827 4.16087C10.6827 4.12662 10.6894 4.0927 10.7025 4.06105C10.7156 4.02941 10.7348 4.00066 10.7591 3.97643C10.7833 3.95221 10.812 3.933 10.8437 3.91989C10.8753 3.90679 10.9093 3.90004 10.9435 3.90004C10.9778 3.90004 11.0117 3.90679 11.0433 3.91989C11.075 3.933 11.1037 3.95221 11.1279 3.97643L11.3124 4.16087C11.349 4.1973 11.3739 4.24379 11.3841 4.29443C11.3942 4.34507 11.3891 4.39758 11.3693 4.44529C11.3495 4.493 11.316 4.53377 11.2731 4.56241C11.2301 4.59106 11.1796 4.60629 11.1279 4.60617ZM9.6522 1.30435C9.58301 1.30435 9.51666 1.27686 9.46774 1.22794C9.41881 1.17902 9.39133 1.11267 9.39133 1.04348V0.782609C9.39133 0.713422 9.41881 0.647069 9.46774 0.598146C9.51666 0.549223 9.58301 0.521739 9.6522 0.521739C9.72139 0.521739 9.78774 0.549223 9.83666 0.598146C9.88559 0.647069 9.91307 0.713422 9.91307 0.782609V1.04348C9.91307 1.11267 9.88559 1.17902 9.83666 1.22794C9.78774 1.27686 9.72139 1.30435 9.6522 1.30435ZM9.6522 5.21739C9.58301 5.21739 9.51666 5.18991 9.46774 5.14098C9.41881 5.09206 9.39133 5.02571 9.39133 4.95652V4.69565C9.39133 4.62647 9.41881 4.56011 9.46774 4.51119C9.51666 4.46227 9.58301 4.43478 9.6522 4.43478C9.72139 4.43478 9.78774 4.46227 9.83666 4.51119C9.88559 4.56011 9.91307 4.62647 9.91307 4.69565V4.95652C9.91307 5.02571 9.88559 5.09206 9.83666 5.14098C9.78774 5.18991 9.72139 5.21739 9.6522 5.21739ZM10.9435 1.83913C10.8919 1.83924 10.8413 1.82401 10.7984 1.79537C10.7554 1.76672 10.7219 1.72596 10.7022 1.67825C10.6824 1.63053 10.6773 1.57802 10.6874 1.52739C10.6975 1.47675 10.7225 1.43026 10.7591 1.39383L10.9435 1.20939C10.9677 1.18517 10.9965 1.16596 11.0281 1.15285C11.0598 1.13974 11.0937 1.133 11.1279 1.133C11.1622 1.133 11.1961 1.13974 11.2278 1.15285C11.2594 1.16596 11.2882 1.18517 11.3124 1.20939C11.3366 1.23361 11.3558 1.26237 11.3689 1.29401C11.382 1.32566 11.3888 1.35957 11.3888 1.39383C11.3888 1.42808 11.382 1.462 11.3689 1.49364C11.3558 1.52529 11.3366 1.55404 11.3124 1.57826L11.1279 1.7627C11.1037 1.78693 11.075 1.80616 11.0433 1.81927C11.0117 1.83239 10.9778 1.83914 10.9435 1.83913ZM8.17646 4.60617C8.12482 4.60629 8.07431 4.59106 8.03134 4.56241C7.98836 4.53377 7.95487 4.493 7.93511 4.44529C7.91535 4.39758 7.91021 4.34507 7.92034 4.29443C7.93048 4.24379 7.95543 4.1973 7.99203 4.16087L8.17646 3.97643C8.20068 3.95221 8.22943 3.933 8.26108 3.91989C8.29273 3.90679 8.32664 3.90004 8.3609 3.90004C8.39515 3.90004 8.42907 3.90679 8.46071 3.91989C8.49236 3.933 8.52111 3.95221 8.54533 3.97643C8.56955 4.00066 8.58876 4.02941 8.60187 4.06105C8.61498 4.0927 8.62173 4.12662 8.62173 4.16087C8.62173 4.19512 8.61498 4.22904 8.60187 4.26069C8.58876 4.29233 8.56955 4.32108 8.54533 4.3453L8.3609 4.52974C8.33674 4.55405 8.308 4.57332 8.27634 4.58644C8.24468 4.59956 8.21073 4.60627 8.17646 4.60617ZM7.0435 4.17391V4.95652H6.78264V2.97652C6.95481 3.34435 7.0435 3.75391 7.0435 4.17391Z" fill="#EAF4F4"/>
</svg>
