<svg width="12" height="12" viewBox="0 0 12 12" fill="none" xmlns="http://www.w3.org/2000/svg">
<path d="M10.2377 1.7623C9.10144 0.625763 7.59631 0 6 0C4.40369 0 2.89856 0.625763 1.7623 1.7623C0.625763 2.89856 0 4.40369 0 6C0 7.59631 0.625763 9.10144 1.7623 10.2377C2.89856 11.3742 4.40369 12 6 12C7.59631 12 9.10144 11.3742 10.2377 10.2377C11.3742 9.10144 12 7.59631 12 6C12 4.40369 11.3742 2.89856 10.2377 1.7623ZM10.6893 3.53906H9.24939L10.117 2.67142C10.3347 2.94022 10.5267 3.23062 10.6893 3.53906ZM9.63913 2.15488L8.25494 3.53906H7.26068L9.0954 1.70435C9.28665 1.84268 9.46829 1.99292 9.63913 2.15488ZM6 0.703125C6.89676 0.703125 7.74188 0.927429 8.483 1.32239L7.35278 2.4527C7.18542 1.86301 6.6427 1.42969 6 1.42969C5.3573 1.42969 4.81458 1.86301 4.64722 2.4527L3.517 1.32239C4.25812 0.927429 5.10324 0.703125 6 0.703125ZM6.70312 2.83594C6.70312 3.22339 6.38718 3.53906 6 3.53906C5.61282 3.53906 5.29688 3.22339 5.29688 2.83594C5.29688 2.64212 5.37589 2.46634 5.50314 2.33881C5.6304 2.21155 5.80618 2.13281 6 2.13281C6.19336 2.13281 6.36868 2.21136 6.49594 2.33817C6.62393 2.46542 6.70312 2.64166 6.70312 2.83594ZM2.9046 1.70435L4.73932 3.53906H3.74506L2.36087 2.15488C2.53171 1.99292 2.71335 1.84268 2.9046 1.70435ZM1.88297 2.67142L2.75061 3.53906H1.31067C1.47327 3.23062 1.66525 2.94022 1.88297 2.67142ZM4.24219 10.9967C3.82782 10.8504 3.43689 10.654 3.07663 10.4149L4.24219 9.24911V10.9967ZM4.24219 8.25494L2.51321 9.98392C2.3367 9.82919 2.17081 9.6633 2.01608 9.48679L4.24219 7.26068V8.25494ZM4.24219 6.26624L1.58505 8.92337C1.02823 8.08502 0.703125 7.07977 0.703125 6C0.703125 5.8819 0.707336 5.76471 0.715118 5.64844H4.24219V6.26624ZM7.05469 11.1911C6.82526 11.2378 6.59061 11.2692 6.35156 11.2849V7.05469H5.64844V11.2849C5.40939 11.2692 5.17474 11.2378 4.94531 11.1911V4.94531H0.808868C0.857574 4.70462 0.922943 4.46997 1.00333 4.24219H10.9967C11.0771 4.46997 11.1424 4.70462 11.1911 4.94531H7.05469V11.1911ZM7.75781 10.9967V9.24911L8.92337 10.4149C8.56311 10.654 8.17218 10.8504 7.75781 10.9967ZM9.48679 9.98392L7.75781 8.25494V7.26068L9.98392 9.48679C9.82919 9.6633 9.6633 9.82919 9.48679 9.98392ZM7.75781 6.26624V5.64844H11.2849C11.2927 5.76471 11.2969 5.8819 11.2969 6C11.2969 7.07977 10.9718 8.08502 10.4149 8.92337L7.75781 6.26624Z" fill="#EAF4F4"/>
</svg>
